<svg xmlns="http://www.w3.org/2000/svg" viewBox="0 0 192 192">
  <rect width="192" height="192" rx="36" fill="#1a1a2e"/>
  <!-- Card body -->
  <rect x="28" y="58" width="136" height="86" rx="14" fill="#6c63ff"/>
  <!-- Magnetic strip -->
  <rect x="28" y="80" width="136" height="22" fill="#252542"/>
  <!-- Barcode lines -->
  <rect x="50" y="112" width="4" height="16" rx="1" fill="#4ecca3"/>
  <rect x="58" y="112" width="2" height="16" rx="1" fill="#4ecca3"/>
  <rect x="64" y="112" width="5" height="16" rx="1" fill="#4ecca3"/>
  <rect x="73" y="112" width="3" height="16" rx="1" fill="#4ecca3"/>
  <rect x="80" y="112" width="6" height="16" rx="1" fill="#4ecca3"/>
  <rect x="90" y="112" width="2" height="16" rx="1" fill="#4ecca3"/>
  <rect x="96" y="112" width="4" height="16" rx="1" fill="#4ecca3"/>
  <rect x="104" y="112" width="3" height="16" rx="1" fill="#4ecca3"/>
  <rect x="111" y="112" width="5" height="16" rx="1" fill="#4ecca3"/>
  <rect x="120" y="112" width="2" height="16" rx="1" fill="#4ecca3"/>
  <rect x="126" y="112" width="4" height="16" rx="1" fill="#4ecca3"/>
  <rect x="134" y="112" width="3" height="16" rx="1" fill="#4ecca3"/>
</svg>
